<svg height='300px' width='300px'  fill="#000000" xmlns:dc="http://purl.org/dc/elements/1.1/" xmlns:cc="http://creativecommons.org/ns#" xmlns:rdf="http://www.w3.org/1999/02/22-rdf-syntax-ns#" xmlns:svg="http://www.w3.org/2000/svg" xmlns="http://www.w3.org/2000/svg" xmlns:sodipodi="http://sodipodi.sourceforge.net/DTD/sodipodi-0.dtd" xmlns:inkscape="http://www.inkscape.org/namespaces/inkscape" version="1.1" x="0px" y="0px" viewBox="0 0 100 100"><g transform="translate(0,-952.36218)"><path style="text-indent:0;text-transform:none;direction:ltr;block-progression:tb;baseline-shift:baseline;color:#000000;enable-background:accumulate;" d="m 29.213311,958.37709 c 5.4523,0.0147 10.9214,2.03381 15.1563,6.09375 7.0542,6.75946 8.625,17.11617 4.5625,25.46875 l 28.4375,27.25011 9.1875,8.8125 5.625001,5.4062 c 0.1886,0.1812 0.3637,0.4168 0.4688,0.6563 0.105,0.2395 0.1507,0.4885 0.1562,0.75 0.0055,0.2614 -0.0302,0.5375 -0.125,0.7812 -0.0949,0.2437 -0.2567,0.4673 -0.4375,0.6563 l -6.562501,6.875 c -0.1811,0.1891 -0.4165,0.332 -0.6562,0.4375 -0.2398,0.1054 -0.4883,0.1505 -0.75,0.1562 -0.2619,0.01 -0.5372,-0.03 -0.7813,-0.125 -0.244,-0.095 -0.4671,-0.2563 -0.6563,-0.4375 l -4.1874,-4 -8.2188,8.5625 c -0.1813,0.1888 -0.4165,0.3637 -0.6562,0.4688 -0.2398,0.1051 -0.4883,0.1508 -0.75,0.1562 -0.2618,0.01 -0.5375,-0.03 -0.7813,-0.125 -0.2439,-0.095 -0.4673,-0.2563 -0.6563,-0.4375 l -9.1874,-8.8125 c -0.1891,-0.1813 -0.3636,-0.4164 -0.4688,-0.6562 -0.1051,-0.2398 -0.1508,-0.4882 -0.1562,-0.75 -0.0055,-0.2618 0.0298,-0.5373 0.125,-0.7813 0.0952,-0.2439 0.2562,-0.4673 0.4374,-0.6562 l 8.2188,-8.5625 -27,-25.87511 c -8.1704,4.40061 -18.570802,3.25941 -25.625002,-3.5 -8.7435997,-8.3829 -9.0091997,-22.32219 -0.625,-31.0625 4.3232,-4.50678 10.102002,-6.76564 15.906202,-6.75 z m -0.0312,9.125 c -3.3939,-0.0107 -6.786402,1.30946 -9.312502,3.9375 -4.8935,5.10838 -4.6903,13.2601 0.4063,18.15625 5.100602,4.90012 13.257702,4.72117 18.156202,-0.375 4.9015,-5.09929 4.7225,-13.25914 -0.375,-18.15625 -0.0013,-10e-4 0.0013,-0.03 0,-0.0312 -2.4736,-2.36334 -5.6868,-3.52123 -8.875,-3.53125 z" fill="#000000" fill-opacity="1" fill-rule="evenodd" stroke="none" marker="none" visibility="visible" display="inline" overflow="visible"></path><path style="text-indent:0;text-transform:none;direction:ltr;block-progression:tb;baseline-shift:baseline;color:#000000;enable-background:accumulate;" d="m 29.184211,971.46926 c -2.3306,-0.008 -4.6591,0.90415 -6.412802,2.72719 -10e-4,8e-4 -0.002,0.002 -0.002,0.003 -3.3986,3.55066 -3.2778,9.10603 0.2628,12.5075 3.537402,3.39834 9.110602,3.27675 12.512902,-0.26281 3.398,-3.53516 3.2776,-9.10208 -0.2591,-12.50375 -0.0013,-10e-4 -0.0025,-0.003 -0.0038,-0.004 -1.718,-1.63953 -3.9087,-2.45912 -6.0975,-2.46688 z" fill="#000000" fill-opacity="1" fill-rule="evenodd" stroke="none" marker="none" visibility="visible" display="inline" overflow="visible"></path></g></svg>